<?xml version="1.0" encoding="UTF-8"?>
<svg id="Capa_1" data-name="Capa 1" xmlns="http://www.w3.org/2000/svg" viewBox="0 0 1080 270.44">
  <defs>
    <style>
      .cls-1 {
        fill: #fff;
      }
    </style>
  </defs>
  <g>
    <path class="cls-1" d="M39.49,207.17c0-3.56.65-8.41,1.29-12.29l5.5-31.69h43.65l-6.79,39.13c-.32,1.94-.65,3.23-.65,4.85,0,3.23,1.94,5.17,5.17,5.17,3.56,0,5.82-2.59,6.79-8.41l5.5-32.98c.65-3.56.97-5.5.97-7.44,0-4.53-1.94-7.11-6.47-10.35l-16.49-12.61c-14.23-10.99-19.72-22.64-19.72-39.13,0-3.88.65-8.41,1.29-12.93l3.88-22.96c4.85-28.46,23.93-45.27,49.8-45.27,30.4,0,47.21,16.17,47.21,42.04,0,3.88-.32,7.76-.97,11.64l-4.2,23.61h-43.98l5.82-31.37c.32-1.94.65-3.56.65-4.85,0-1.62-1.29-3.56-3.88-3.56-3.56,0-4.85,2.26-5.82,7.76l-4.53,24.58c-.65,3.56-.97,5.17-.97,7.11,0,4.53,2.26,7.11,6.47,10.35l16.49,12.93c14.23,10.99,20.05,22.31,20.05,38.8,0,3.88-.65,8.41-1.29,12.93l-5.17,30.72c-5.17,30.4-23.93,46.89-51.74,46.89-31.37,0-47.86-15.84-47.86-42.68Z"/>
    <path class="cls-1" d="M193.09,60.36h-27.16l6.47-36.86h99.27l-6.47,36.86h-27.16l-32.98,186.26h-44.95l32.98-186.26Z"/>
    <path class="cls-1" d="M283.31,23.5h44.3c33.31,0,47.21,16.17,47.21,41.39,0,4.85-.32,9.7-1.29,14.55l-2.59,13.58c-3.88,21.67-12.93,32.34-25.55,37.19v.65c9.38,6.14,13.58,15.84,13.58,28.46,0,3.88-.65,8.41-1.29,12.61l-13.58,74.7h-44.95l14.87-82.46c.65-3.56.65-5.5.65-7.11,0-5.5-3.23-7.11-8.41-7.11h-.32l-17.14,96.69h-44.95l39.45-223.12ZM313.71,112.75c7.11,0,9.7-2.91,11.64-13.9l4.2-24.25c.65-3.56.97-5.5.97-7.11,0-5.17-3.23-7.11-8.41-7.11h-.32l-9.05,52.38h.97Z"/>
    <path class="cls-1" d="M399.4,23.5h44.95l-39.45,223.12h-44.95l39.45-223.12Z"/>
    <path class="cls-1" d="M530.68,136.67v109.94h-43.98l1.94-112.21h-.65l-20.05,112.21h-44.95l39.45-223.12h44.95l-18.11,101.86h.65l32.34-101.86h45.92l-37.51,113.18Z"/>
    <path class="cls-1" d="M581.45,23.5h86.34l-6.79,36.86h-41.07l-8.41,47.86h35.57l-6.79,36.86h-35.57l-11.32,64.67h41.39l-6.47,36.86h-86.34l39.45-223.12Z"/>
    <path class="cls-1" d="M681.7,23.5h43.98c33.31,0,47.21,16.17,47.21,41.39,0,4.85-.32,9.38-1.29,14.55l-1.62,9.7c-3.56,21.02-12.61,32.01-24.58,37.19v.65c9.05,5.82,13.58,15.52,13.58,28.46,0,3.88-.65,8.08-1.29,12.29l-5.82,32.98c-5.82,32.66-24.58,45.92-54,45.92h-55.62l39.45-223.12ZM695.92,209.75c7.11,0,9.7-2.91,11.64-13.26l6.47-36.54c.65-3.23.97-5.17.97-6.79,0-5.5-3.23-7.44-9.7-7.44h-.32l-11.32,64.03h2.26ZM712.09,108.87c7.11,0,9.7-2.59,11.64-12.93l3.88-21.34c.65-3.56.97-5.5.97-7.11,0-5.17-3.56-7.11-8.41-7.11h-.32l-8.41,48.5h.65Z"/>
    <path class="cls-1" d="M764.48,206.52c0-4.2.32-7.11.97-11.64l22.63-128.05c5.17-29.75,24.58-46.56,52.39-46.56,30.07,0,47.86,16.49,47.86,43.33,0,4.2-.32,7.11-.97,11.64l-22.64,128.05c-5.17,29.75-24.9,46.56-52.38,46.56-30.4,0-47.86-16.49-47.86-43.33ZM819.77,203.93l23.93-136.78c.32-1.62.32-2.59.32-3.88,0-3.56-1.62-5.5-4.85-5.5-3.56,0-5.17,2.59-6.14,8.41l-23.93,136.78c-.32,1.62-.32,2.59-.32,3.88,0,3.56,1.62,5.5,4.85,5.5,3.56,0,5.17-2.59,6.14-8.41Z"/>
    <path class="cls-1" d="M904.49,126.33l-5.5-102.83h43.98l-.97,50.12h.65l15.84-50.12h45.27l-44.3,111.56,6.14,111.56h-44.3l1.29-60.79h-.65l-19.73,60.79h-45.59l47.86-120.29Z"/>
  </g>
  <path class="cls-1" d="M1013.29,192.72c15.23,0,27.36,11.79,27.36,26.87s-12.12,27.03-27.52,27.03-27.68-11.96-27.68-27.03,12.29-26.87,27.68-26.87h.16ZM1012.96,198.13c-11.63,0-20.64,9.66-20.64,21.46s9.01,21.46,20.97,21.46c11.63.16,20.48-9.5,20.48-21.3s-8.85-21.62-20.64-21.62h-.16ZM1008.86,233.51h-6.22v-26.87c2.46-.33,5.9-.82,10.32-.82,5.08,0,7.37.82,9.17,2.13,1.64,1.15,2.78,3.11,2.78,5.73,0,3.28-2.46,5.41-5.57,6.39v.33c2.62.82,3.93,2.95,4.75,6.55.82,4.1,1.47,5.57,1.97,6.55h-6.55c-.82-.98-1.31-3.28-2.13-6.55-.49-2.78-2.13-4.1-5.57-4.1h-2.95v10.65ZM1009.03,218.44h2.95c3.44,0,6.22-1.15,6.22-3.93,0-2.46-1.8-4.1-5.73-4.1-1.64,0-2.78.16-3.44.33v7.7Z"/>
</svg>